<svg width="80" height="70" viewBox="0 0 180 295" fill="none" xmlns="http://www.w3.org/2000/svg">
<path d="M101.7 274.5C101 275 100.2 275.5 99.4001 276.1C98.6001 276.7 97.8001 277.3 97.0001 277.9C96.3001 278.5 95.7001 279.2 95.3001 280C94.9001 280.7 94.8001 281.5 95.0001 282.4C95.0001 282.6 95.1001 282.7 95.1001 282.9C95.1001 283 95.2001 283.2 95.2001 283.3C95.3001 283.4 95.3001 283.6 95.4001 283.7C95.5001 283.8 95.5001 284 95.6001 284.1C95.1001 284.9 94.6001 285.7 94.1001 286.5C93.7001 287.3 93.2001 288 92.7001 288.6C92.2001 289.2 91.6001 289.7 90.9001 290C90.2001 290.3 89.3001 290.5 88.3001 290.5C87.3001 290.5 86.3001 290.3 85.3001 290C84.3001 289.7 83.4001 289.3 82.5001 288.8C81.6001 288.3 80.7001 287.7 79.9001 287.1C79.0001 286.5 78.2001 285.8 77.4001 285.1C77.4001 285 77.4001 284.9 77.3001 284.8C77.3001 284.7 77.3001 284.6 77.2001 284.5C77.2001 284.4 77.2001 284.3 77.1001 284.2C77.1001 284.1 77.0001 284 77.0001 283.9C76.7001 283.1 76.4001 282.4 76.0001 281.8C75.6001 281.2 75.0001 280.6 74.5001 280C73.9001 279.5 73.3001 279 72.7001 278.5C72.1001 278.1 71.4001 277.6 70.7001 277.3C70.7001 277.3 70.7001 277.3 70.7001 277.4C70.7001 277.4 70.7001 277.4 70.7001 277.5C70.7001 277.5 70.7001 277.5 70.7001 277.6C70.7001 277.6 70.7001 277.6 70.7001 277.7C70.7001 277.8 70.8001 277.9 70.8001 278.1C70.8001 278.2 70.9001 278.3 70.9001 278.5C70.9001 278.6 71.0001 278.8 71.0001 278.9C71.0001 279 71.1001 279.2 71.1001 279.3C71.8001 281.3 72.8001 283.2 74.0001 285C75.2001 286.7 76.6001 288.2 78.2001 289.5C79.8001 290.8 81.5001 291.9 83.3001 292.7C85.1001 293.5 87.1001 294 89.0001 294.1C91.0001 294.2 92.9001 293.9 94.6001 293.2C96.3001 292.5 97.9001 291.3 99.1001 289.8C100.4 288.3 101.3 286.4 101.8 284.3C102.3 282.1 102.4 279.7 101.9 277.2L101.7 274.5Z" fill="white"></path>
<path d="M23.1 176.2C22.9 176.3 22.7 176.4 22.5 176.5C22.3 176.6 22.1 176.7 21.9 176.8C21.7 176.9 21.5 177 21.3 177.2C21.1 177.3 20.9 177.5 20.7 177.6C19.6 178.3 18.6 179.1 17.6 179.8C16.6 180.6 15.7 181.4 14.9 182.3C14.1 183.2 13.3 184.2 12.5 185.4C11.7 186.6 11 188 10.4 189.6C12.3 189.3 14.2 189.3 16.1 189.6C18.1 189.9 20 190.4 22 191.2C24 192 26 193.1 28 194.4C30 195.7 32 197.3 34 199.1L26 175.3C25.8 175.4 25.5 175.4 25.3 175.5C25.1 175.6 24.8 175.6 24.6 175.7C24.4 175.8 24.1 175.9 23.9 176C23.5 176 23.3 176.1 23.1 176.2Z" fill="white"></path>
<path d="M29.6001 174.9L37.5001 198L55.0001 198.3C53.2001 194.6 51.2001 191.3 49.1001 188.4C47.0001 185.5 44.9001 183.1 42.7001 181.1C40.5001 179.1 38.3001 177.6 36.1001 176.5C34.0001 175.6 31.8001 175 29.6001 174.9Z" fill="white"></path>
<path d="M40 205.3C42.7 208.5 45.3 212.1 47.9 216.2C50.5 220.3 53 224.9 55.4 229.8C57.8 234.8 60.1 240.2 62.2 245.9C64.3 251.7 66.3 257.8 68 264.3C68.1 261.5 68.2 258.6 68.1 255.7C68 252.8 67.9 249.8 67.6 246.8C67.4 243.8 67 240.7 66.6 237.7C66.2 234.6 65.6 231.6 65 228.5C64.6 226.4 64.1 224.4 63.6 222.4C63.1 220.4 62.6 218.5 62 216.6C61.4 214.7 60.9 212.9 60.3 211.1C59.7 209.3 59 207.6 58.4 206L40 205.3Z" fill="white"></path>
<path d="M0.300049 35C0.800049 39.8 1.40005 44.6 2.00005 49.4C2.60005 54.3 3.30005 59.2 4.10005 64.2C4.90005 69.2 5.70005 74.2 6.50005 79.3C7.40005 84.4 8.30005 89.5 9.30005 94.7C10.6001 101.5 12 108.1 13.5 114.5C15 121 16.5 127.3 18.1 133.5C19.7 139.7 21.3 145.7 23.1 151.5C24.8 157.4 26.6001 163 28.4001 168.5C29.2001 168.4 30.0001 168.3 30.8001 168.3C31.6001 168.3 32.4 168.4 33.2 168.5C34 168.6 34.8 168.8 35.6 169.1C36.4 169.4 37.2 169.7 38 170.1C36.2 165.8 34.4 161.3 32.6 156.7C30.8 152.1 29.1001 147.4 27.4001 142.6C25.7001 137.8 24.1 132.9 22.5 127.9C20.9 122.9 19.3001 117.8 17.8001 112.6C15.8001 105.8 14.0001 99.1 12.3001 92.4C10.6001 85.8 9.00005 79.2 7.60005 72.7C6.20005 66.2 4.90005 59.8 3.70005 53.5C2.20005 47.2 1.20005 41 0.300049 35Z" fill="white"></path>
<path d="M156.5 133.8C155.5 134 154.4 134.2 153.4 134.4C152.4 134.6 151.4 134.9 150.3 135.1C149.3 135.4 148.3 135.6 147.3 135.9C146.3 136.2 145.3 136.5 144.3 136.9L141 166.3C144.3 162.5 147.8 159 151.4 155.8C155 152.6 158.6 149.6 162.4 146.9C166.1 144.2 170 141.8 173.9 139.7C177.8 137.6 181.8 135.7 185.8 134.1C183.4 133.4 181.2 132.9 178.9 132.6C176.6 132.3 174.4 132.2 172 132.2C169.7 132.2 167.3 132.4 164.8 132.7C162.3 133 159.7 133.4 156.9 133.8H156.8H156.7H156.6C156.6 133.8 156.5 133.8 156.5 133.8Z" fill="white"></path>
<path d="M131.4 178.4L88.8001 199.6C88.2001 202 87.7001 204.3 87.4001 206.8C87.0001 209.2 86.7001 211.7 86.5001 214.2C86.3001 216.7 86.2001 219.2 86.3001 221.7C86.3001 224.2 86.5001 226.8 86.7001 229.3C87.1001 233.1 87.7001 236.8 88.6001 240.4C89.5001 244 90.6001 247.5 91.9001 250.8C93.2001 254.2 94.8001 257.4 96.5001 260.4C98.3001 263.5 100.2 266.3 102.3 269C102.5 260.2 103.3 251.5 104.8 243C106.3 234.7 108.3 226.7 110.9 219C113.4 211.4 116.5 204.2 120 197.4C123.4 190.6 127.2 184.3 131.4 178.4Z" fill="white"></path>
<path opacity="0.7" d="M118.5 0.599976C119.9 5.89998 121 11.4 122 17.1C122.9 22.9 123.6 28.8 124.1 35C124.6 41.3 125 47.8 125.3 54.5C125.6 61.3 125.7 68.4 125.8 75.7C126.1 92.7 124.8 106.4 122.6 117.8C120.3 129.6 117 138.8 113.4 146.7C109.7 154.7 105.7 161.2 102.1 167.3C98.4 173.6 95.2 179.4 93.2 186.3C93.1 186.5 93.1 186.6 93 186.8C92.9 187 92.8 187.1 92.8 187.3C92.7 187.5 92.7 187.7 92.6 187.8C92.5 188 92.5 188.2 92.4 188.3L132.7 168.9C134.8 156 136.1 143.9 136.8 132.6C137.5 121.6 137.7 111.3 137.5 101.8C137.3 92.5 136.7 83.8 136 75.8C135.2 67.9 134.2 60.7 133.1 54.2C132.3 49.3 131.3 44.4 130.3 39.7C129.3 35 128.1 30.4 126.9 25.9C125.7 21.5 124.4 17.1 123 12.9C121.5 8.69998 120.1 4.59998 118.5 0.599976Z" fill="white"></path>
</svg>
