<?xml version="1.0" encoding="utf-8"?>
<!-- Generator: Adobe Illustrator 28.1.0, SVG Export Plug-In . SVG Version: 6.00 Build 0)  -->
<svg version="1.1" id="Ebene_1" xmlns="http://www.w3.org/2000/svg" xmlns:xlink="http://www.w3.org/1999/xlink" x="0px" y="0px"
	 viewBox="0 0 1115.54 752.29" style="enable-background:new 0 0 1115.54 752.29;" xml:space="preserve">
<style type="text/css">
	.st0{fill-rule:evenodd;clip-rule:evenodd;fill:url(#SVGID_1_);}
</style>
<linearGradient id="SVGID_1_" gradientUnits="userSpaceOnUse" x1="851.3047" y1="761.5333" x2="146.7211" y2="-30.9297" gradientTransform="matrix(0.0586 0.9983 -0.9983 0.0586 918.6886 -194.6709)">
	<stop  offset="0" style="stop-color:#FF4B4B"/>
	<stop  offset="1" style="stop-color:#FF744F"/>
</linearGradient>
<path class="st0" d="M669.48,751.86c128.88-7.57,228.53-113.71,230-240.84l0,0c1.31-104.1,21.95-128.68,95.08-155.41
	c74.38-26.85,125.52-100.12,120.65-183.09c-5.93-101.04-92.65-178.14-193.68-172.2c-56.72,3.33-105.89,32.12-137.07,74.61l0-0.01
	c-0.05,0.07-0.1,0.13-0.15,0.2c-0.02,0.03-0.04,0.05-0.06,0.08c-89.02,121.24-197.97,127.64-300.57,17.69
	c-0.07-0.07-0.13-0.14-0.2-0.21c-0.03-0.03-0.05-0.05-0.08-0.08l0,0c-35.93-38.55-88.13-61.39-144.85-58.06
	c-90.2,5.29-161.26,74.99-171.26,161.76l-0.02-0.02c-8.74,75-23.17,88.61-76.27,108.19C35.03,324.74-3.42,379.9,0.24,442.35
	c4.47,76.11,69.79,134.2,145.91,129.73c20.49-1.2,39.65-6.85,56.66-15.89l0,0.01c83.37-44.27,155.2-53.99,246.89,84.03
	C495.91,711.85,578.32,757.21,669.48,751.86z"/>
<g>
</g>
<g>
</g>
<g>
</g>
<g>
</g>
<g>
</g>
<g>
</g>
</svg>
